# xmcd
#
# Track frame offsets:
#	150
#	14687
#	35769
#	52420
#
# Disc length: 1113 seconds
#
# Revision: 1
# Processed by: cddbd v1.5.1PL0 Copyright (c) Steve Scherf et al.
# Submitted via: audiograbber 1.83.01
#
DISCID=39045704
DTITLE=Tekknoheimer and Froggy Vs. Pippi - Hey Pippi Langstrumpf [CD-Single)
DYEAR=2001
DGENRE=
TTITLE0=Hey Pippi Langstrumpf (Radio Version)
TTITLE1=Hey Pippi Langstrumpf (Extended Party Mix)
TTITLE2=Hupenlied (Radiomix)
TTITLE3=Hupenlied (Klubmix)
EXTD=
EXTT0=
EXTT1=
EXTT2=
EXTT3=
PLAYORDER=
